<?xml version="1.0" encoding="UTF-8"?>
<svg id="Capa_2" data-name="Capa 2" xmlns="http://www.w3.org/2000/svg" xmlns:xlink="http://www.w3.org/1999/xlink" viewBox="0 0 485.2 592.51">
  <defs>
    <style>
      .cls-1 {
        fill: #fff;
      }

      .cls-2 {
        fill: #00326e;
      }

      .cls-3 {
        fill: #dca898;
      }

      .cls-4 {
        fill: #060015;
      }

      .cls-5 {
        fill: #e00022;
      }

      .cls-6 {
        fill: #000e2a;
      }

      .cls-7 {
        fill: #0072aa;
      }

      .cls-8 {
        fill: #28b400;
      }

      .cls-9 {
        fill: #0057fe;
      }

      .cls-10 {
        fill: #10195e;
      }

      .cls-11 {
        fill: #020015;
      }

      .cls-12 {
        fill: #de021b;
      }

      .cls-13 {
        fill: #ffae7f;
      }

      .cls-14 {
        fill: #f8001e;
      }

      .cls-15 {
        fill: #f1ea5c;
      }

      .cls-16 {
        fill: #1f1200;
      }

      .cls-17 {
        fill: #b80716;
      }

      .cls-18 {
        fill: #e9ffc9;
      }

      .cls-19 {
        fill: #ffffe0;
      }

      .cls-20 {
        fill: #180f0a;
      }

      .cls-21 {
        fill: #81b201;
      }

      .cls-22 {
        fill: #83add9;
      }

      .cls-23 {
        fill: #1a130f;
      }

      .cls-24 {
        clip-path: url(#clippath);
      }

      .cls-25 {
        fill: #ebc028;
      }

      .cls-26 {
        fill: #500;
      }

      .cls-27 {
        fill: none;
      }

      .cls-28 {
        fill: #653299;
      }

      .cls-29 {
        fill: #ffcf5f;
      }

      .cls-30 {
        fill: #80b505;
      }

      .cls-31 {
        fill: #710094;
      }

      .cls-32 {
        fill: #c09062;
      }

      .cls-33 {
        fill: #e9ff55;
      }

      .cls-34 {
        fill: #100e67;
      }

      .cls-35 {
        fill: #2a9152;
      }

      .cls-36 {
        fill: #0072fe;
      }

      .cls-37 {
        fill: #003255;
      }
    </style>
    <clipPath id="clippath">
      <rect class="cls-27" x="105.17" y="541" width="213.31" height="51.51"/>
    </clipPath>
  </defs>
  <g id="Capa_1-2" data-name="Capa 1">
    <path class="cls-32" d="m312,396.93c22.08,3.48,41.16,4.68,56.04,5.04,8.28.24,13.68,0,18.12-.24,8.4-.6,14.76-1.32,16.8-1.56,8.76-1.32,19.32-2.76,31.08-7.2s19.68-7.44,26.04-15c6.12-7.32,7.44-15.6,10.08-32.04.96-6,1.56-14.64,3-32.04.96-12.36.72-11.16.96-12.96,3.12-19.56,11.76-23.16,11.04-35.04-.84-12.12-10.44-19.56-11.04-20.04-7.08-5.28-20.28-9.48-30-1.92-6.84,5.28-9.84,14.64-8.04,24-1.44-1.44-7.08-6.6-9.96-5.04-3.12,1.68-3.12,10.44.96,15.96,3.36,4.68,7.32,3.84,9.96,8.04,2.4,3.6,1.68,7.44,0,16.08-3.36,17.76-4.92,26.76-6.96,31.92-4.44,11.52-6.6,17.16-8.04,19.08-10.8,15-49.2,10.56-92.76-5.88-5.76,16.32-11.52,32.64-17.28,48.84Z"/>
    <g class="cls-24">
      <path class="cls-11" d="m317.8,592.51H108.35c-.23-1.36-.91-7.03-1.59-14.98v-2.27c-.45-2.27-1.59-7.03-1.59-7.49v-.45c0-3.18,1.13-19.06,1.13-19.06,0-1.82.23-4.31.45-7.26h195.38c10.21,8.62,12.48,13.84,12.71,17.02,0,.91-.23,5.67,1.13,12.03v.45c1.82,7.94,2.27,15.43,1.82,22.01Z"/>
    </g>
    <path class="cls-3" d="m256.76,359.46c-2.27,25.64-15.43,43.12-25.87,43.12s-24.05-17.47-25.19-44.25c4.08.68,8.17,1.36,12.03,1.82,12.71,1.36,26.1,1.13,39.03-.68Z"/>
    <path class="cls-32" d="m104.49,342.22c-4.77-1.36-45.16-11.35-77.38,14.98-6.13,4.99-22.01,19.52-26.1,41.07-6.58,34.95,19.29,76.25,66.26,97.35-5.22,14.98-.23,30.63,11.12,38.12.68.45,15.43,10.44,27.91,2.04,7.26-4.77,11.12-13.62,10.21-23.15,3.86,4.08,10.67,9.98,13.84,8.17,4.08-2.27,2.27-14.98-1.82-24.28-4.54-10.21-10.89-14.3-26.1-27-26.78-22.01-34.95-31.32-38.12-35.17-11.12-12.93-17.93-21.33-16.11-29.05,2.95-12.71,28.37-19.52,61.72-19.29-1.82-14.75-3.63-29.27-5.45-43.8Z"/>
    <path class="cls-7" d="m379.52,378.3c-2.5,16.11-15.66,28.82-32,31.09-16.11-1.82-32.22-3.4-48.11-5.22,1.36,4.08,3.4,10.44,3.86,18.15.68,8.17-.45,14.07-.91,18.15-1.82,12.48-.45,22.01,2.04,41.07,2.5,19.29,5.22,20.65,7.94,38.12,2.5,16.11,2.5,29.95,2.04,40.17-6.58,1.82-16.57,4.54-29.05,5.9-30.86,3.86-39.03-3.63-72.39-3.86-26.32-.23-28.14,4.31-68.08,5.9-17.25.68-31.09.45-40.17,0-2.5-20.42-1.36-36.31,0-47.2,1.59-11.8,4.77-26.32,7.03-36.99,3.63-17.47,6.13-25.42,4.99-38.12-.45-5.9-1.13-7.72-1.59-11.57-.23-2.04-.45-3.4-.45-4.54-.23-4.08-1.36-14.75-2.95-31.09-8.62,1.82-19.06,3.18-31.09,3.4-12.93.45-24.05-.91-33.13-2.5-2.04-2.95-12.71-18.38-9.08-39.03,4.31-24.51,24.51-35.85,27-37.22,17.7-2.27,43.12-3.63,72.62,1.82,6.58,4.54,13.62,8.4,20.65,12.03,13.62,6.58,25.19,12.03,40.39,13.39,9.3.91,15.88-1.59,19.97,2.95,2.27,2.5,2.95,6.35,4.08,12.93.68,4.99.91,9.08.91,12.25,1.13-2.72,2.72-6.81,4.08-12.25,1.36-5.45.91-6.35,2.04-7.94,2.95-4.31,8.62-1.13,23.83-2.27,8.85-.68,20.42-2.72,23.6-3.63.45,0,2.04-.45,4.08-.68,1.59-.23,2.72-.45,3.4-.45,0,0,2.72,0,7.49-1.59,10.89-3.4,22.47-10.67,22.47-10.67,7.03-4.31,19.06-7.49,42.43-.68,15.66,6.81,24.73,23.37,22.01,40.17Z"/>
    <path class="cls-36" d="m251.76,431.63c13.16.68,26.1,1.36,39.26,2.04,3.18,8.4,7.03,21.78,5.9,38.12-.45,7.03-1.59,12.93-2.95,18.15-4.99,1.59-13.16,3.4-23.15,2.95-9.53-.45-17.25-2.95-22.01-4.99-.68-6.13-1.13-12.93-.91-20.2,0-13.84,1.82-25.87,3.86-36.08Z"/>
    <path class="cls-9" d="m251.76,431.63c4.77-1.13,11.8-2.5,20.2-2.04,7.94.45,14.52,2.5,19.06,4.08,0,.91,1.36,9.76-4.99,16.11-4.77,4.54-10.67,4.99-12.03,4.99-4.08-2.04-9.76-5.67-15.2-12.03-3.18-4.08-5.45-7.94-7.03-11.12Z"/>
    <circle class="cls-22" cx="275.36" cy="454.32" r="2.5"/>
    <path class="cls-22" d="m227.26,377.85c0,1.36-1.13,2.5-2.5,2.5s-2.5-1.13-2.5-2.5c0-1.59,1.13-2.72,2.5-2.72s2.5,1.13,2.5,2.72Z"/>
    <path class="cls-36" d="m137.39,426.41h50.83c1.59,9.08,2.95,19.52,3.4,31.09.45,12.03,0,22.69-.91,32-6.35,2.27-17.47,4.99-31.09,3.18-7.49-1.13-13.39-3.18-17.93-4.99-2.5-7.03-5.22-16.11-6.13-27.23-1.36-14.07.23-25.87,1.82-34.04Z"/>
    <path class="cls-9" d="m137.39,426.41c5.9-1.82,14.52-4.08,25.19-4.08s19.74,2.27,25.64,4.08c-.91,4.54-3.63,13.62-11.57,22.01-4.99,5.45-10.44,8.4-14.07,9.98-4.08-3.18-9.08-7.72-14.07-13.84-5.22-6.81-8.62-13.16-11.12-18.15Z"/>
    <circle class="cls-22" cx="163.04" cy="457.04" r="2.5"/>
    <path class="cls-19" d="m286.03,485.63c-2.72.91-7.26,2.27-13.16,2.04-3.63-.23-6.81-1.13-9.08-2.04.91-4.77,1.36-10.67,1.13-17.02-.23-3.63-.45-7.03-1.13-10.21,3.18.68,6.81,1.13,11.12,1.13,3.18,0,6.81-.23,11.12-1.13.68,4.31,1.13,9.53.91,15.2,0,4.31-.45,8.4-.91,12.03Z"/>
    <path class="cls-10" d="m263.79,458.4c3.4.68,7.49,1.13,12.03,1.13,3.86,0,7.26-.45,10.21-1.13-1.59,4.31-4.99,7.49-9.08,8.17-5.22.91-10.89-2.5-13.16-8.17Z"/>
    <path class="cls-10" d="m286.03,485.63c-.91.45-2.27,1.13-4.08,1.82-.91.23-2.04.68-3.18.68-1.13.23-2.5.45-3.86.45-1.82,0-6.35-.23-11.12-2.95,2.5-3.63,6.35-5.9,10.44-6.13h2.72c1.13.23,2.04.45,2.95.91,3.63,1.59,5.67,4.54,6.13,5.22Z"/>
    <path class="cls-21" d="m283.53,474.06l-.91-.23c-.45,1.59-1.36,3.18-2.5,4.31-1.36,1.36-2.95,2.04-4.77,2.04-1.36,0-2.72-.68-3.63-1.36-.91-.45-1.36-1.13-1.59-1.36-1.13-1.36-1.82-2.95-1.82-4.77,0-1.13.45-2.27.91-3.18.68-1.36,1.82-2.27,2.95-2.72,1.13-.68,2.04-.68,2.5-.91h1.36c1.36,0,3.18.23,4.77,1.82,1.59,1.59,1.82,3.4,1.82,4.77v1.36l.91.23.91.23v-1.82c0-1.59-.23-4.08-2.27-6.13-2.04-2.04-4.54-2.5-6.13-2.5-.91,0-1.59.23-1.82.23-.45,0-1.59.23-2.95.91-1.13.68-2.72,1.82-3.63,3.63-.68,1.36-1.13,2.72-1.13,4.08,0,2.27.91,4.31,2.27,5.9,0,.23.68,1.13,1.82,1.82,1.13.91,2.72,1.59,4.77,1.59,2.27,0,4.31-.91,5.9-2.27,1.59-1.59,2.72-3.4,3.18-5.45l-.91-.23Z"/>
    <path class="cls-30" d="m277.63,473.61c-.23,0-.23.45-.68.91-.45.45-1.13.68-1.82.45-.91-.23-1.36-.68-1.59-1.59-.23-.68,0-1.36.45-1.82.91-.91,2.27-.91,2.95,0,.91.68.68,1.82.68,2.04Z"/>
    <path class="cls-12" d="m281.04,484.5c.23.91.68,2.04.91,2.95-.91.23-2.04.68-3.18.68,0-.23-.23-.91-.45-1.59-.23-1.36-.45-2.04-.68-2.72-.23-.68-.45-2.04-1.36-3.4-.68-.23-1.36-.45-2.04-.91-.23-.23-.45-.23-.68-.45-1.82-1.13-3.4-2.5-4.54-3.63-.23,0-.23-.91.45-1.82.91-.68,1.59-.68,1.82-.68.68.91,1.59,1.82,2.95,2.72,1.13.68,2.04,1.13,2.72,1.36.23-.68.45-1.36.68-2.04.91-2.04,1.82-3.86,2.72-5.22.23,0,.68.45,1.36.68h1.82c-.91,1.13-1.82,2.72-2.5,4.54-.68,1.82-1.13,3.4-1.36,4.77.23.23.23.45.23.68.45,1.36.68,2.72,1.13,4.08Z"/>
    <path class="cls-18" d="m133.31,391.23c6.81-1.13,14.75-1.82,23.15-1.82,13.16,0,24.73,1.36,34.27,2.95-.45,2.5-.91,4.99-1.36,7.49-.45,3.18-1.13,6.35-1.59,9.53-6.35-1.36-13.84-2.5-22.24-2.95-11.8-.68-22.24.23-30.63,1.59-.91-2.04-1.82-4.99-2.27-8.85-.23-3.4.23-6.13.68-7.94Z"/>
    <path class="cls-33" d="m154.64,461.58c2.72-.23,5.67-.23,8.85,0,3.63,0,7.03.45,10.21.91v27c-2.27.68-4.99,1.13-8.17,1.13-4.77,0-8.4-1.13-10.89-2.04-1.13-2.95-2.04-7.03-2.04-12.03-.23-6.35.91-11.57,2.04-14.98Z"/>
    <path class="cls-7" d="m160.31,482.68c-1.36-.45-2.5-.68-3.86-1.13-.68,1.13-1.13,2.04-1.82,2.95,1.13.91,3.86,2.72,7.94,3.18,4.54.23,7.72-1.36,9.08-2.04-.45-1.36-.68-2.72-1.13-4.08-1.36.45-2.72.68-4.08,1.13.45.45.91.68,1.59,1.13-.91.45-2.72,1.36-5.22,1.13-2.04-.23-3.63-.91-4.31-1.36.68-.45,1.13-.68,1.82-.91Z"/>
    <path class="cls-5" d="m163.49,488.58c.68-3.18,1.13-6.35,1.59-9.53.23-1.13.23-2.04.45-3.18h-.68c-.23,0-.45-.23-.68-.45v-2.04h1.82c.68,1.13,1.82,1.82,2.72,1.36.68-.23.91-1.13.91-1.36.45.45.91.45,1.13.45.45-.23.91-.68.91-1.13,0,0-.23-.45-.91-.68-.45-.23-.91.23-1.13.23,0-.91-.45-1.82-.91-2.04-.91-.23-2.27.45-2.72,2.04h-1.82c.23-.45.23-1.13.45-1.82.68,0,1.59-.45,1.82-1.13.23-.68,0-1.82-.68-2.04-.68-.45-1.59,0-1.59,0,0-.23.45-.45.45-1.13,0-.91-.91-1.36-.91-1.59,0,.23-.91.68-.91,1.59,0,.68.23,1.13.45,1.13,0,0-.68-.68-1.59-.45-.68,0-1.36,1.36-1.13,2.27.23.68,1.13,1.36,2.27,1.36,0,.68.23,1.36.23,2.04-.45-.23-.91-.23-1.59-.23-.23-1.13-1.13-2.04-2.04-2.04-1.36-.23-2.04.68-2.04.91l.68,1.13c-.23,0-.68-.23-1.13-.23-.91,0-1.36.45-1.36.68,0,0,.23.68,1.13.91.45.23.91,0,1.36-.45l-.68,1.36c0,.23.91.68,2.04.45,1.36-.23,2.04-1.36,2.04-1.59.68,0,1.13.23,1.59.23v1.82c0,.23-.45.45-.68.45h-.45c.45,4.31,1.13,8.4,1.59,12.71Z"/>
    <path class="cls-1" d="m260.39,422.78c4.99-1.13,11.57-1.82,18.83-1.82,6.58,0,12.48.91,17.25,1.82v7.72c-5.22-.68-11.12-1.36-17.25-1.82-6.81-.23-13.16-.23-18.83,0v-5.9Z"/>
    <path class="cls-29" d="m260.39,421.87c4.99-.91,11.57-1.82,18.83-1.59,6.58,0,12.48.68,17.25,1.59v5.22c-1.82-.45-4.31-1.13-7.26-1.82-7.72-1.13-14.07-.91-19.52-.68-2.27,0-5.45.23-9.3.68v-3.4Z"/>
    <path class="cls-14" d="m288.98,423c.45,0,1.13,0,1.59.23,0,.68-.23,1.36-.23,2.27-.68-.23-1.59-.23-2.27-.23v-1.59h.23v1.36c.68,0,1.13,0,1.82.23,0-.68,0-1.36.23-1.82-.45-.23-.91-.23-1.36-.23v-.23Z"/>
    <path class="cls-14" d="m288.07,425.95v1.13h-.23c0-.45.23-.91.23-1.59.68.23,1.36.23,2.27.23,0,.91-.23,1.59-.23,2.27h-1.59v-.23c.45,0,.91,0,1.36.23,0-.68,0-1.36.23-2.04h-2.04Z"/>
    <path class="cls-14" d="m292.38,423.46h-1.36v1.82c.45,0,1.13,0,1.82.23v-1.36h.23c0,.45,0,1.13-.23,1.59-.68-.23-1.36-.23-2.04-.23v-2.27h1.59v.23Z"/>
    <path class="cls-14" d="m290.57,425.73c.91.23,1.59.23,2.27.23v1.59h-.23c0-.45.23-.91.23-1.36h-2.04v1.82h1.13v.23h-1.59c.23-.91.23-1.59.23-2.5Z"/>
    <path class="cls-35" d="m269.92,424.82c.23,1.36-.91,2.72-2.5,2.95.68-.91.91-1.59,1.13-2.5l.23-.45h1.13Zm-1.13.23c-.23.45-.23.91-.23,1.36-.23.23-.45.68-.45.91,1.13-.23,1.82-1.13,1.82-2.27h-1.13Z"/>
    <path class="cls-35" d="m264.24,425.27h1.36c.45.91.91,1.59,1.36,2.5-1.36.23-2.5-.91-2.72-2.5Zm.23.23c.23,1.13,1.13,2.04,2.27,2.04-.23-.45-.45-.68-.68-.91-.23-.45-.23-.68-.45-.91l-.23-.45c-.23,0-.68.23-.91.23Z"/>
    <path class="cls-35" d="m269.92,424.59h-1.36c-.45-.91-.91-1.59-1.13-2.5,1.13-.23,2.5.91,2.5,2.5Zm-.23-.23c0-1.13-.91-2.04-2.04-2.04.45.68.68,1.36,1.13,2.04h.91Z"/>
    <path class="cls-35" d="m266.51,422.1c-.23.91-.45,1.82-.91,2.72-.45,0-.91,0-1.36.23,0-1.59.91-2.95,2.27-2.95Zm-.23.23c-1.13.23-1.82,1.13-1.82,2.5.23-.23.68-.23.91-.23.45-.68.68-1.36.91-2.27Z"/>
    <path class="cls-35" d="m267.19,427.54c-.45-.68-.91-1.36-1.13-2.5h2.04c0,.91-.23,1.82-.91,2.5Zm.91-2.27h-1.82c.23.68.68,1.36.91,2.04l.23-.23c.23-.45.45-1.13.68-1.82Z"/>
    <path class="cls-35" d="m268.1,424.59c-.68.23-1.36.23-2.04.23,0-.91.45-1.82.91-2.5.68.68.91,1.36,1.13,2.27Zm-.91-2.04h-.23l-.68,2.04c.68,0,1.13-.23,1.59-.23-.23-.68-.45-1.13-.68-1.82Z"/>
    <path class="cls-28" d="m279.22,420.96c.23.23.45.45.68.68.68.68.91,1.36.45,2.04-.23.45-.45.68-.45,1.13-.23.45-.45.68-.91.45q-.45,0-.68-.45c0-.23-.23-.68-.45-1.13-.23-.91,0-1.59.68-2.27.23,0,.45-.23.68-.45Zm0,.45c-1.59.91-1.59,2.04-.45,3.63v-.45c0-.68,0-1.36.23-2.04l.23-.45.23.45v.45c-.23.68-.23,1.36-.23,2.04h.23c.23-.23.23-.68.45-.91.68-1.36.45-1.82-.68-2.72Z"/>
    <path class="cls-28" d="m276.27,425.27c-.68,0-.91-.68-.91-1.13.23-.68.91-1.13,1.59-.91.68.23,1.13.91,1.36,2.04-.23,0-.45,0-.68-.23-.23,0-.45-.45-.68-.23-.23,0-.45.23-.68.45Zm1.59-.23c0-.68-.23-1.13-.68-1.59-.68-.23-1.13,0-1.36.45-.23.45-.23.91.45,1.13.45-.91.91-.91,1.59,0Z"/>
    <path class="cls-28" d="m281.72,425.73c-.23-.45-.23-.68-.45-.91-.23,0-.45.45-.91.45,0,0-.23,0-.45.23l-.23-.23c.23-.45.45-.91.91-1.36.45-.45,1.13-.68,1.82,0,.23.23.45.68.23.91,0,.68-.45.91-.91.91Zm.23-.23c.45-.45.68-.68.45-1.13,0-.45-.68-.68-1.13-.68-.68.23-1.13.91-1.13,1.59,1.13-.91,1.36-.91,1.82.23Z"/>
    <path class="cls-28" d="m280.58,425.73c-.68.45-2.5.45-3.18,0,1.13-.45,2.04-.23,3.18,0Z"/>
    <path class="cls-28" d="m278.99,427.31v-1.13h.23c.23.45.45.68.45,1.13,0,.23-.23.68-.68.68-.23,0-.45-.23-.68-.45-.23,0-.23-.45-.23-.68.23,0,.23-.23.45-.45l.23-.23v1.13h.23Zm.23-.91v.68l-.23.45-.23-.45c-.23,0,0-.23,0-.45-.45.45-.68.68-.23,1.13.68.23.68-.23,1.13-.45-.23-.23-.23-.45-.45-.91Z"/>
    <path class="cls-28" d="m278.31,426.41c-.23.23-.68.45-.91.68-.23,0-.45-.45-.91-.45.68-.23,1.13-.45,1.59-.45l.23.23Z"/>
    <path class="cls-28" d="m279.68,426.18c.68.23.91.45,1.59.45,0,.45-.45.68-.68.45-.45,0-.68-.45-.91-.91Z"/>
    <path class="cls-28" d="m260.39,420.96c-.68-1.36-1.59-3.4-1.59-6.35-.23-3.18.45-5.9.91-7.26,1.82-.23,4.08-.68,7.03-.91,6.58-.45,7.26.23,16.34,0,3.63,0,5.67-.23,8.85.23,2.5.45,4.54,1.13,5.9,1.82.23,1.82.45,4.31,0,7.03-.23,2.04-.68,3.86-1.13,5.45-1.59-.23-3.86-.45-6.81-.68-10.89-1.13-19.06-.45-20.65-.45-3.86.45-6.81.91-8.85,1.13Z"/>
    <path class="cls-1" d="m265.38,413.7h-.23c-.23-1.13-.45-2.04-.45-3.18h-.23c.23,1.13.23,2.04.45,3.18h-.45c-.23-.23-.23-.45-.45-.68,0-.23-.23-.68-.45-.91s-.23-.68-.23-.91c0-.45.23-.68.45-1.13.23-.23.45-.45.68-.68.23.23.45.45.91.68.45.45.68.91.45,1.59,0,.23,0,.45-.23.68,0,.45-.23.91-.23,1.36Z"/>
    <path class="cls-1" d="m264.24,413.93h-.45l-.45-.45c-.23-.23-.68-.23-.91.23v.45h-.45c-.45-.23-.68-.91-.68-1.36.45-.91,1.36-1.13,2.04-.68.45.45.68.91.91,1.36v.45Zm-1.82-.91h0v-.45q-.23.23-.45,0v.23l-.23.23h.23l.23.23q0-.23.23-.23Z"/>
    <path class="cls-1" d="m267.42,413.7v-.45c-.23-.45-.68-.45-.91-.23-.23.23-.23.45-.23.45l-.23.23h-.45v-.23c0-.68.23-1.13.68-1.59.23-.45.91-.68,1.36-.45.68.23.91,1.36.45,1.82-.23.23-.45.45-.68.45Zm.45-1.36l-.23-.23v-.23l-.23.23h-.23c.23,0,0,.23,0,.45q.23-.23.45,0c-.23-.23,0-.23.23-.23Z"/>
    <path class="cls-1" d="m264.47,414.61h.45c0,.23.23.68.23,1.13v-1.13h.45s.23.23.23.45l.23.23v.23c-.23.45-.45.68-.68.91h-.23c-.23-.23-.68-.45-.91-.68v-.23c.23-.23.23-.45.23-.91Z"/>
    <path class="cls-1" d="m263.11,415.29c.45,0,.68-.23.68-.68h.45c0,.45,0,.68-.23.91s-.68.23-.91,0v-.23Z"/>
    <path class="cls-1" d="m266.29,414.38c0,.45.45.45.91.23,0,.23-.23.45-.45.68h-.45c-.23-.23-.45-.45-.68-.91h.68Z"/>
    <path class="cls-1" d="m264.93,414.38h-1.36v-.23h.45c.68-.23,1.36-.45,2.04-.23h.23v.23h-.23c-.23.23-.68.23-1.13.23Zm-1.13-.23v.23c.91,0,1.59-.23,2.5-.45-.91,0-1.82.23-2.5.23Z"/>
    <path class="cls-1" d="m265.83,417.33c-.23.23-.45.45-.68.45v-.23l.45-.45.23.23Z"/>
    <polygon class="cls-1" points="265.83 417.33 265.61 417.1 265.83 416.88 266.29 416.88 266.51 416.88 266.51 417.1 266.06 417.1 265.83 417.33"/>
    <path class="cls-1" d="m264.93,418.24l.23-.23h.68v.23l-.23.23q-.23-.23-.45-.23h-.23Z"/>
    <polygon class="cls-1" points="264.24 417.78 264.02 417.33 264.47 417.1 264.47 417.33 264.47 417.56 264.24 417.78"/>
    <polygon class="cls-1" points="266.29 417.56 266.29 417.33 266.74 416.88 266.74 417.1 266.74 417.33 266.29 417.56"/>
    <path class="cls-1" d="m264.02,417.78l.23.23.23.23h-.45v-.45Z"/>
    <path class="cls-1" d="m265.38,417.1l-.45.23h-.23l.23-.23h.45Z"/>
    <path class="cls-1" d="m265.61,418.01c.23-.23.68-.23.91-.23l-.23.23h-.68Z"/>
    <path class="cls-1" d="m266.51,418.46h-.68l.23-.23q.23,0,.45.23Z"/>
    <path class="cls-1" d="m266.29,418.01c.23-.23.45,0,.68.23l-.23.23-.45-.45Z"/>
    <path class="cls-1" d="m264.93,417.56v.23h-.45q0-.23.23-.23h.23Z"/>
    <path class="cls-1" d="m266.97,417.33v-.23c-.23-.23,0-.23.23-.23v-.23.23q.23.23,0,.23l-.23.23Z"/>
    <polygon class="cls-1" points="268.56 415.51 268.56 415.74 268.56 415.97 268.33 416.2 268.33 415.97 268.33 415.74 268.56 415.51"/>
    <path class="cls-1" d="m262.88,409.16v-.23l.23-.23h.23q0,.23-.23.45h-.23Z"/>
    <polygon class="cls-1" points="266.74 418.01 266.51 417.78 266.51 417.56 266.74 417.33 266.74 418.01"/>
    <path class="cls-1" d="m269.46,412.79h0c-.23,0-.23-.23-.23-.45q.23,0,.23.23v.23Z"/>
    <path class="cls-1" d="m262.88,417.33v-.23h.45v.23h-.45Z"/>
    <path class="cls-1" d="m261.75,416.65l.23-.23h.23l.23.23h-.68Z"/>
    <path class="cls-1" d="m260.61,410.98l.23.23v.45h-.23q-.23-.23,0-.45v-.23Z"/>
    <path class="cls-1" d="m261.29,415.51h-.45l-.23-.45h.23s.23,0,.23.23l.23.23Z"/>
    <path class="cls-1" d="m264.02,417.33l-.23.23h-.45v-.23h.68Z"/>
    <polygon class="cls-1" points="261.29 410.52 261.29 410.52 261.29 410.07 261.29 409.84 261.52 410.07 261.52 410.3 261.29 410.52"/>
    <polygon class="cls-1" points="269.01 414.61 269.01 414.61 269.24 414.83 269.01 415.06 268.78 414.83 269.01 414.61"/>
    <polygon class="cls-1" points="261.29 416.2 261.52 415.97 261.75 416.2 261.98 416.42 261.75 416.42 261.52 416.42 261.29 416.2"/>
    <polygon class="cls-1" points="262.2 416.88 262.43 416.88 262.66 416.88 262.88 416.88 262.88 417.1 262.43 417.1 262.2 416.88"/>
    <path class="cls-1" d="m267.42,416.88h0q0-.23.23-.45h.23l-.23.23-.23.23Z"/>
    <path class="cls-1" d="m262.88,408.93v.23h-.23l-.23.23q0-.23.23-.45h.23Z"/>
    <polygon class="cls-1" points="263.56 408.93 263.56 408.71 263.56 408.48 264.02 408.48 264.02 408.71 263.79 408.71 263.56 408.93"/>
    <path class="cls-1" d="m267.42,409.39h.23l.23.23h-.45v-.23Z"/>
    <path class="cls-1" d="m261.07,410.52h0v.23l-.23.45v-.45l.23-.23Z"/>
    <path class="cls-1" d="m260.39,411.66h.23v.45h-.23v-.45Z"/>
    <polygon class="cls-1" points="266.29 408.93 266.51 408.71 266.97 408.93 266.74 408.93 266.51 409.16 266.29 408.93"/>
    <path class="cls-1" d="m265.15,408.48h0q0,.23-.23.23h-.23q0-.23.23-.23h.23Z"/>
    <polygon class="cls-1" points="261.52 415.97 261.29 415.97 261.07 415.74 261.07 415.51 261.29 415.74 261.52 415.97"/>
    <path class="cls-1" d="m269.46,413.93h-.23v-.45h.23v.45Z"/>
    <polygon class="cls-1" points="260.39 412.79 260.39 412.56 260.16 412.56 260.39 412.11 260.39 412.34 260.61 412.34 260.39 412.79"/>
    <polygon class="cls-1" points="260.39 413.25 260.39 413.25 260.16 413.02 260.16 412.79 260.39 412.79 260.39 413.02 260.39 413.25"/>
    <path class="cls-1" d="m265.83,408.48h0q-.23.23-.45.23h-.23l.23-.23h.45Z"/>
    <path class="cls-1" d="m266.29,408.71h0l-.23.23-.23-.23q0-.23.45-.23v.23Z"/>
    <polygon class="cls-1" points="266.74 409.16 266.97 408.93 267.19 408.93 267.42 409.16 267.19 409.39 266.74 409.16"/>
    <polygon class="cls-1" points="262.2 409.16 262.2 409.39 262.2 409.61 261.98 409.84 261.98 409.61 261.98 409.39 262.2 409.16"/>
    <path class="cls-1" d="m268.1,415.97h0q.23.23,0,.45l-.23.23v-.23l.23-.23v-.23Z"/>
    <path class="cls-1" d="m267.88,409.84v-.23h.23l.23.45q-.23,0-.45-.23Z"/>
    <path class="cls-1" d="m260.39,414.61h.23q.23,0,.23.23v.23h-.23v-.23l-.23-.23Z"/>
    <path class="cls-1" d="m269.46,412.11h-.23l-.23-.23v-.23h.23l.23.23v.23Z"/>
    <path class="cls-1" d="m269.01,410.98h-.23l-.23-.23q.23-.23.45,0v.23Z"/>
    <polygon class="cls-1" points="269.24 413.93 269.24 414.15 269.46 414.15 269.24 414.61 269.01 414.38 269.24 413.93"/>
    <path class="cls-1" d="m268.1,410.3l.23-.23.23.23.23.23h-.23s-.23,0-.23-.23h-.23Z"/>
    <path class="cls-1" d="m260.61,414.38h-.23v-.45q.23,0,.23.23v.23Z"/>
    <path class="cls-1" d="m269.46,413.47v-.23q-.23,0-.23-.23v-.23q.23,0,.23.23v.45Z"/>
    <path class="cls-1" d="m268.78,415.06h.23v.23l-.23.23v.23-.23c-.23,0-.23-.23,0-.45Z"/>
    <polygon class="cls-1" points="269.24 411.66 269.24 411.66 269.01 411.43 268.78 411.2 269.01 411.2 269.24 411.43 269.24 411.66"/>
    <path class="cls-1" d="m261.75,409.61h0c.23.23,0,.23,0,.45h-.23v-.23l.23-.23Z"/>
    <path class="cls-1" d="m265.15,418.01l-.23.23h-.23l-.23-.23c.23-.23.45,0,.68,0Z"/>
    <path class="cls-1" d="m264.02,408.71h0q0-.23.23-.23h.23v.23h-.45Z"/>
    <path class="cls-1" d="m260.61,413.93h-.23l-.23-.23v-.45l.23.23s.23,0,.23.23v.23Z"/>
    <path class="cls-1" d="m264.24,418.46h.45l.23-.23c0,.23-.23.45-.23.45l-.45-.23Z"/>
    <path class="cls-1" d="m265.38,418.46s-.23.23-.45.23v-.45l.45.23Z"/>
    <polygon class="cls-1" points="264.02 418.24 264.24 418.46 264.02 418.69 263.56 418.46 264.02 418.24"/>
    <path class="cls-1" d="m266.06,417.33c0,.23,0,.45-.45.23l.45-.23Z"/>
    <polygon class="cls-1" points="263.79 418.92 263.56 418.69 264.02 418.69 263.79 418.92"/>
    <polygon class="cls-1" points="267.19 418.46 266.97 418.69 266.74 418.46 267.19 418.46"/>
    <polygon class="cls-1" points="263.56 419.15 263.56 419.37 263.34 418.92 263.56 419.15"/>
    <polygon class="cls-1" points="267.42 418.46 267.42 418.69 267.19 418.92 267.19 418.69 267.42 418.46"/>
    <path class="cls-1" d="m267.19,418.46l-.23.23.23-.23Z"/>
    <path class="cls-12" d="m282.85,382.16c-.23.45-.45,2.04-1.59,3.4-1.82,2.04-4.77,3.18-7.49,2.72-.45,0-2.04-.23-3.63-1.59-.45-.23-2.95-2.04-3.18-5.22,0-.45-.45-3.63,2.04-6.13,1.59-1.59,3.4-2.04,4.31-2.27.45,0,4.99-.91,7.94,2.27,2.5,2.72,1.59,6.58,1.59,6.81Z"/>
    <path class="cls-29" d="m274.46,381.02l.23.23v.45l-.23.23s0,.23-.23.45c-.23.23-.45,0-.91,0s-.68,0-1.13.23c-.23-.68-.23-1.13-.23-1.82s0-1.13.23-1.82h.91q.23,0,.68.23h.23s.23,0,.45.23v.23l.23.23c0,.23,0,.45-.23.68-.23.23-.45.23-.45.23h.23l.23.23Zm-1.82-.45h.68c.23,0,.45,0,.45-.23h.23v-.45l-.23-.23h-1.13v.91Zm1.36,1.36h0v-.68c-.23-.23-.45-.23-.45-.23h-.91v.91h.68c.23,0,.45.23.68,0Z"/>
    <polygon class="cls-29" points="274.91 382.38 274.91 382.16 274.91 381.93 275.14 381.93 275.36 381.93 275.59 382.16 275.36 382.38 275.14 382.61 274.91 382.38"/>
    <path class="cls-29" d="m278.09,380.57l-.45.45h-.23c-.23,0-.45,0-.45.23,0,0-.23,0-.45-.23v1.59h-.68c.23-.68.23-1.13.23-1.82s0-1.13-.23-1.82h1.36l.45.23s.45,0,.45.45l.23.23v.23c0,.23-.23.23-.23.45Zm-.45,0v-.91l-.23-.23h-.91v1.13l.45.23.23-.23h.45Z"/>
    <polygon class="cls-29" points="277.86 382.38 277.63 382.16 277.86 381.93 278.09 381.93 278.31 381.93 278.54 382.16 278.31 382.38 278.09 382.61 277.86 382.38"/>
    <path class="cls-31" d="m174.16,371.49c0,.68-.23,4.31-2.27,8.17-2.95,4.77-7.94,8.17-13.84,8.62-6.35.45-10.89-2.72-12.03-3.4-7.03-5.22-7.26-13.62-7.26-14.52s0-9.98,6.81-14.52c7.94-5.45,19.29-1.36,24.51,4.99.91,1.13,4.08,4.99,4.08,10.67Z"/>
    <path class="cls-26" d="m174.84,372.63c-.45,6.13-4.99,9.98-6.13,11.12-1.36,1.13-5.22,4.08-10.67,4.54-6.35.45-12.25-2.27-12.03-3.4.23-.91,4.31,0,10.21-2.04,2.27-.68,7.94-2.72,11.35-8.17,3.86-6.35,1.82-13.62,1.36-14.98.91.68,2.95,2.27,4.31,4.99.45.45,2.04,3.63,1.59,7.94Z"/>
    <path class="cls-1" d="m153.05,369.22h-.45c0,1.82-.23,3.86-.68,4.99-.23.68-.45,1.13-.68,1.59-.23.23-.45.45-.68.45,0,0-.23-.23-.45-.45-.91-.91-1.59-3.63-1.59-6.58,0-2.04.45-4.08.91-5.22,0-.68.45-1.13.68-1.59.23-.23.45-.23.45-.23.23,0,.45,0,.68.23.68,1.13,1.36,3.63,1.36,6.81h1.13c0-2.27-.45-4.08-.91-5.67-.23-.68-.45-1.13-.91-1.59-.23-.45-.68-.91-1.36-.91-.45,0-.91.45-1.36.91-.91,1.36-1.59,3.86-1.59,7.26,0,2.04.23,3.86.91,5.45.23.68.45,1.13.68,1.59.45.45.91.91,1.36.91.68,0,1.13-.45,1.36-.91,1.13-1.36,1.59-3.86,1.82-7.03h-.68Z"/>
    <path class="cls-1" d="m150.56,366.5v.68c2.04,0,3.86.23,5.22.68.68.23,1.13.45,1.59.68.23.23.23.45.23.68,0,0,0,.23-.23.45-1.13.91-3.63,1.59-6.81,1.59-2.04,0-3.86-.45-4.99-.91-.68-.23-1.13-.45-1.59-.68-.23-.23-.45-.45-.45-.45,0-.23.23-.45.45-.68.91-.91,3.63-1.59,6.58-1.36v-1.13c-2.04,0-3.86.45-5.45.91-.68.23-1.13.45-1.59.91-.45.23-.91.68-.91,1.36,0,.45.45.91.91,1.13,1.13,1.13,3.86,1.82,7.03,1.82,2.27,0,4.08-.45,5.45-.91.91-.23,1.36-.45,1.82-.91.45-.23.91-.68.91-1.13,0-.68-.45-1.13-.91-1.36-1.36-1.13-4.08-1.82-7.26-1.82v.45Z"/>
    <path class="cls-1" d="m152.37,367.41l-.23.23c1.13,1.13,2.04,2.27,2.72,3.4.68,1.13.91,2.04.91,2.5,0,.23,0,.45-.23.45,0,.23-.23.23-.45.23-.45,0-1.36-.23-2.5-.91-1.13-.68-2.27-1.59-3.4-2.72-1.13-1.13-2.04-2.27-2.72-3.4-.68-1.13-.91-2.04-.91-2.5v-.45q.23-.23.68-.23c.45,0,1.36.23,2.5.91.91.68,2.27,1.59,3.4,2.72l.23-.23.45-.45c-1.36-1.13-2.5-2.04-3.63-2.72-1.13-.68-2.27-1.13-2.95-1.13-.45,0-.91,0-1.13.45-.45.23-.45.68-.45,1.13,0,.91.23,1.82.91,2.95.68,1.13,1.82,2.5,2.95,3.63,1.13,1.13,2.5,2.04,3.63,2.72,1.13.68,2.04,1.13,2.95,1.13.45,0,.91,0,1.13-.45.45-.23.45-.68.45-1.13,0-.91-.45-1.82-1.13-2.95-.68-1.13-1.59-2.5-2.72-3.63l-.45.45Z"/>
    <path class="cls-8" d="m258.8,405.98c-1.36-1.82-2.72-4.31-3.63-7.49-.45-1.59-.91-2.95-1.13-4.31,8.62-.23,17.7-.23,27.23,0,4.08,0,7.94.23,12.03.45.91,1.59,2.27,3.4,3.18,5.9.91,2.04,1.59,4.08,2.04,5.67-5.45-.68-11.57-1.36-18.15-1.36-7.94-.23-15.2.23-21.56,1.13Z"/>
    <path class="cls-6" d="m165.31,341.76c9.08,3.86,15.43,5.9,19.06,7.03,2.04.45,2.95.68,4.77,1.13,1.82.23,2.95.68,3.4.68,6.81,1.82,10.89.23,14.98,3.18.45.23,1.13.68,1.59,1.13.68.91,1.36,1.59,1.36,1.82.68,1.36,6.13,4.54,8.17,7.26,2.72,3.4.91,5.67,2.72,13.39,1.13,4.08,2.72,7.26,3.63,9.08,1.36-2.04,3.4-4.99,4.99-9.08.91-2.27,1.36-4.08,1.82-5.67.68-3.18,3.18-9.08,3.86-9.98,1.59-1.36,2.27-1.36,7.94-4.08,4.99-2.27,8.62-4.54,11.12-5.9,4.31-.23,7.72-1.36,9.98-2.04,2.95-1.13,4.54-2.04,7.94-2.95,2.95-.91,5.45-1.13,7.03-1.13-7.94,11.12-14.3,19.74-18.83,25.64-.68.91-1.36,1.82-1.82,2.72-1.36,1.59-2.5,3.18-3.63,4.54-3.86,5.45-7.03,10.21-9.76,17.02-2.72,6.35-3.86,11.57-4.77,16.11-.68,3.18-.91,5.67-1.13,8.17-1.36,12.25-1.36,23.6-1.36,27.91.23,14.3-.91,14.75-1.36,30.86-.45,19.06-.91,39.94,2.72,63.08.91,6.13,3.18,17.93-2.04,30.86-1.59,3.63-3.18,6.35-4.54,8.17-2.04-3.4-4.99-8.4-7.94-14.75-7.49-17.25-9.3-32-10.67-47.65-1.82-24.28-3.4-46.75-3.4-76.02,0,0-.23-21.33-6.35-36.99,0,0-.45-1.59-1.36-3.4-4.54-10.67-8.17-12.93-20.88-32.22-7.94-11.57-13.62-21.56-17.25-27.91Z"/>
    <path class="cls-20" d="m391.32,250.77c.23,5.9-3.18,6.35-4.99,15.2-1.59,7.03.68,7.49-1.13,12.03-2.27,6.58-7.03,5.9-12.93,14.07-4.54,6.13-2.95,8.17-7.03,12.93-5.22,6.13-12.03,8.17-14.98,9.08-14.07,4.08-34.04,1.13-37.22-8.17-1.59-4.99,3.18-7.94,16.11-27.91,13.16-20.42,7.72-16.11,17.93-32.22,8.4-12.71,12.48-20.2,9.76-26.55-.91-2.04-1.36-1.36-5.67-7.03-5.9-7.72-8.85-11.57-9.53-16.34-.45-4.08.45-7.03-1.59-11.12-1.59-3.4-3.63-3.86-5.45-6.35-1.36-2.27-2.72-5.9-2.04-11.57q-.23-.23-.45-.23c-6.58-2.27-9.08,0-16.11-1.13-11.8-1.82-13.39-10.21-24.05-14.98-12.48-5.67-17.25,2.95-38.58,2.04-20.88-.91-21.33-9.3-39.71-9.08-17.02.23-17.7,7.49-39.03,9.98-20.88,2.5-25.64-3.63-39.03,0-4.99,1.36-10.44,4.08-16.34,9.08-5.22,6.81-11.8,17.47-15.66,31.77-8.17,29.95.91,55.37,4.77,64.67,20.65,19.52,23.6,43.34,15.2,52.19-9.3,9.3-34.72,4.99-42.21-7.03-4.31-7.03,0-11.8-6.13-25.19-4.08-9.08-9.98-17.02-9.98-17.02-4.31-5.9-6.13-7.26-7.03-11.12-1.36-7.03,3.63-9.53,2.95-15.88-.68-9.76-12.48-9.76-14.98-19.06-2.95-11.57,12.48-19.29,9.08-31.32-2.27-7.49-9.3-8.4-9.08-13.84.23-8.17,18.61-11.57,18.15-17.25-.68-4.54-14.07-5.45-14.07-8.85,0-4.08,19.06-3.63,22.92-13.16,2.72-6.58-3.86-12.48-.91-16.11,4.08-4.77,19.52,7.03,27,1.13,3.86-2.95,1.59-7.26,6.13-11.12,6.13-4.99,14.98-1.13,16.11-3.86,1.13-3.4-11.35-10.89-10.21-12.93.68-1.59,9.53,4.31,16.11.68,4.54-2.5,5.22-8.17,8.17-7.94,2.72.23,2.95,5.67,5.9,6.13,3.86.45,5.67-8.62,11.12-9.08,4.77-.45,7.03,6.81,12.03,5.9,4.08-.45,4.31-6.35,8.4-6.81,5.22-.45,8.17,5.9,11.57,4.99,3.18-1.13,1.13-7.49,4.99-9.98,4.31-2.95,9.98,2.72,14.07-.23,3.86-2.5,2.04-9.08,4.99-9.98,2.27-.68,3.4,2.27,9.08,4.77,2.72,1.13,6.13,2.72,9.98,2.27,5.22-.45,6.81-3.86,10.21-2.95,2.27.68,3.86,3.18,4.77,5.9,2.72,1.13,6.81,2.5,10.21,1.13,4.54-2.04,4.31-7.26,7.94-8.17,2.04-.23,2.5.91,11.57,5.9,4.31,2.27,5.45,2.72,6.58,2.95,4.77,1.13,5.67-.91,9.08.23,5.22,1.82,4.99,7.26,9.98,8.17,2.95.45,4.77-1.36,5.9,0,1.82,1.59-.68,6.58,0,6.81.91.45,3.4-4.31,4.99-3.86,2.27.45,1.59,8.85,3.18,9.08,1.13,0,1.36-4.31,3.86-5.22,3.4-.91,9.53,4.77,12.03,11.12,2.04,4.54,1.13,7.03,3.18,7.94,3.18,1.82,7.03-3.18,12.03-1.82,2.95.68,4.77,3.63,5.9,5.9,7.94-3.63,10.89-3.18,12.03-2.04,2.27,2.27-1.36,7.03,1.13,11.12,2.5,3.86,7.49,2.04,9.98,5.9,2.5,4.08-1.59,8.17.91,12.25,3.18,4.77,12.25,3.86,12.03,4.99,0,.91-10.21.23-10.89,2.95-1.13,3.86,18.15,11.35,17.02,16.11-.68,2.95-9.3,1.82-9.98,4.99-.91,3.18,11.12,5.45,12.93,14.07.45,2.04.23,3.86,0,4.99-1.13,6.35-5.9,7.72-9.08,14.07-1.82,3.86-1.82,7.49-1.82,10.89-.23,7.94,4.54,9.98,4.99,19.06,0,3.4-.45,3.63,0,7.03.68,6.81,2.72,7.72,2.95,12.03Z"/>
    <path class="cls-32" d="m108.35,292.98c8.4,14.07,26.32,39.48,58.32,55.14,58.77,28.82,147.95,15.2,181.54-45.16,24.51-44.02,8.4-93.27,3.86-105.75-7.72-12.48-25.87-38.58-59.91-56.05-11.12-5.67-57.64-27.91-112.33-9.76-15.2,4.99-53.55,17.47-73.52,56.96-25.19,49.24-.91,98.71,2.04,104.61Z"/>
    <path class="cls-20" d="m223.4,255.31c-1.13-1.36,2.27-8.85,8.4-10.67.68,0,4.54-1.13,7.94,1.13,1.36.68,2.27,1.82,2.72,2.5s2.95,4.08,2.5,8.4c-.68,5.45-5.9,8.17-7.49,9.08-1.13.68-3.86,2.04-7.26,1.59-.45,0-6.13-.45-7.03-3.63-.23-1.13,0-2.5.68-3.18,1.13-.68,2.04.45,4.31.45,2.72,0,5.45-1.82,6.35-4.08,0-.45.45-1.59,0-2.72-.23-.23-.91-1.59-2.04-1.82-1.13-.23-1.82,1.13-3.63,2.04-1.82,1.13-4.77,1.82-5.45.91Z"/>
    <path class="cls-17" d="m156.23,407.35c.23,0,.45-.23.68-.23.45-.23.91-.23,1.13,0l.23.23v1.13c-.45.23-.91.45-1.36.68-.45.45-1.13.45-1.82.91h-.23l-.23.23c-.45,0-.91.23-1.36.23-.45.23-.68.23-.91,0,0-.23.23-.45.45-.45.23-.23.68-.45.91-.68l.23-.23h-.45c-.68.45-1.59.68-2.27,1.36-.23.23-.68.45-.68.91,0,.68.23.91.68,1.36,0,.23.45.45.91.68.23.45.68.68,1.13.91v.45c0,.45,0,.91.23,1.36.45.68.91,1.13,2.04,1.36.23,0,.68,0,.91.23,0,0,0,.23.23,0h.23c.45.68.23.68-.45,1.13h-.45c-.23,0-.45.23-.68.45-.45.23-.91,0-1.13.23-.23-.23,0-.45.23-.68,0-.23.23-.45.45-.45h.91q.23,0,.23-.23c.23,0,0-.23-.23-.23-1.13-.23-2.04.45-2.27,1.13,0,.45,0,.91-.23,1.36h-.45c-.68.23-1.36.68-2.04.68-.68.23-1.36.68-2.27.68h-1.13l-.45-.23q-.91-.23-.68-1.13h.45c.23,0,.23-.23.45-.23h.23c.23-.23.68-.23.91-.45h.23c.23,0,.68-.23,1.13-.23v-.23h.45c.23,0,.45,0,.68-.23h.23c.23,0,.45-.23.68-.23h.45v.45c-.23.23-.45.23-.68.23-.23.23-.68.23-.68.23.23.23.68,0,.91,0,.45-.23.91-.45,1.13-.91q0-.23.23-.23c.68-.23.91-.45.45-.91-.23-.45-.68-.91-1.36-1.13-.68-.45-1.36-.91-2.27-1.36-.45-.23-.91-.45-1.13-.91-.23-.23-.68-.23-.91-.45-.68-.68-1.13-1.59-.68-2.5l.23-.23.45-.23v-.23c.23,0,.23-.23.45-.23h-.23c.23-.23.45-.23.45-.45.23,0,.45-.23.68-.45l.23-.23c.23,0,.45,0,.68-.23.23,0,.45,0,.45-.23.91-.45,2.04-.68,3.18-1.13.68-.23,1.36-.23,1.82-.45h.68Z"/>
    <path class="cls-15" d="m159.86,418.92h0c0-.68.23-1.13.91-1.36l.23-.23h.45q.68-.23.68.23l-.23.23c-.23.23-.45.45-1.13.23v.23c-.23.23-.23.45.23.45l.23.45h.23v.23l.23.23c0,.23.23.23.45,0,.45-.23.91-.45,1.36-.91.23,0,.45-.23.68-.23.23.23,0,.45,0,.45l-.23.23c-.23,0-.45,0,0,.23q.23,0,.23.23s0,.23.23.23.45,0,.45-.23v-.23c.23-.68.45-1.13.68-1.59.23-.45.45-.68.91-.68q.23,0,.45.23c-.23.23-.45.68-.45.91l-.23.45-.23.23v.45h-.23l-.23.45s0,.23.23.23c.23.23.45,0,.45,0l.23-.23c.45-.23.45-.45.68-.68,0,0,.23-.23.45-.23s0,.23.23.23v.91c.23,0,.23-.23.23-.23.23-.23.45-.68.45-.91l.45-.23v.91h.23c.23-.23.45-.45.68-.68h.23l.23-.23.23-.23h.23c.23,0,.68,0,.68.23l-.23.23q-.23.23,0,.45h.23v.45l.23-.23h.23l.23-.45c.45,0,.68-.23.91-.45.23,0,.45-.23.45-.23v-.23l.23-.45c.23-.23.45-.45.45-.68v-.23h.45v.68c0,.23-.23.45,0,.68-.68.45-.68.91-.68,1.36q.23.23.45.23c.23-.23.45-.23.68-.45.23-.23.45-.23.68-.45h.23c.91,0,1.13.45.68.91-.23.45-.45.68-.91.68-.45.23-.68.23-.91,0,0-.23-.23-.23-.45-.23-.45.23-.68,0-.91-.23q-.23-.23-.45,0c-.23.23-.45.45-.68.45-.23.23-.45.23-.68,0,0-.23-.23-.23-.45-.23-.23.23-.45,0-.45,0-.23-.45-.45-.23-.45-.23-.23.23-.68.45-.91.68l-.23-.23h-.45c-.45,0-.68,0-.91.23-.23.23-.45.23-.68,0v-.68h-.45c-.23.23-.23.45-.68.45-.45.23-.68,0-.91-.23q-.23-.23-.45,0c-.45.23-.68.23-.91-.23h-.45c-.23.23-.45.23-.68.45h-.45l-.23-.23-.23.23-.23.23c-.23.23-.68.23-1.13.45-.23,0-.45.23-.68,0,0-.23.23-.45.45-.45s.45-.23.68-.45c.23,0,.45-.23.23-.23-.23-.45-.68-.68-1.13-.91v-.23Zm16.34.91v-.45l-.23.23-.45.23v.45l.45-.23.23-.23Zm-12.71-.23v-.23h-.23l.23.23Z"/>
    <path class="cls-34" d="m162.13,417.56h0q0-.45-.68-.23h-.68l-.45-.45h-.23l-.23-.23c0-.23,0-.45-.23-.68,0-.23,0-.45-.23-.45v-1.13h.23c0-.23,0-.45.23-.68v-.23h.23l.23-.45.23-.23h.45v-.23h.45c.45-.23,1.13-.23,1.82,0h.45v.23h.23c.45.45.91.91,1.13,1.36v1.82l-.23.23c-.45.91-1.36,1.36-2.72,1.36Zm2.04-2.5c0-.23,0-.45-.23-.68-.23-.68-.68-.91-1.36-1.13-.68,0-1.13.23-1.59.45-.68.68-.68,1.82,0,2.5.68.91,2.04.68,2.72,0,.23-.45.45-.68.45-1.13Z"/>
    <path class="cls-34" d="m166.89,417.33q-.23-.23-.45-.23c-.23-.45-.23-.68-.45-.91v-3.63h.68q.23,0,.23.23c0,.23.23.45.23.91-.23.45-.23.91,0,1.36-.23.45-.23,1.13.23,1.36l.23.23c.45.23.91.23,1.36,0l.23-.23c.23-.23.23-.45.45-.45v-2.95c0-.45.23-.45.45-.45h.45v4.99h-.91v-.45c-.68.45-.91.68-1.59.45-.45,0-.91,0-1.13-.23Z"/>
    <path class="cls-34" d="m156.46,417.78c-.23-.23-.68-.23-.91-.23-1.13-.23-1.59-.68-2.04-1.36-.23-.45-.23-.91-.23-1.36v-.45c.23-.45.45-.91.68-1.13v-.23h.23c.23,0,.23-.23.45-.23.23-.23.68-.23.91-.45h.23c.45.23.91.23,1.36.23.23,0,.45.23.68.45l.45.23.23.23v.23h.23v.23q0,.23-.23.23h-.91l-.23-.23v-.23h-.23l-.23-.23c-.23-.23-.68-.23-1.13-.23l-.23.23h-.45v.23l-.45.23v.23l-.23.23v.45h-.23v.23l.23.23c-.23.68.45,1.13,1.13,1.36.23.23.45.23.68,0q.23.23.45,0l.45-.23h.23v-.23q.23-.23.45-.45h.91v.23c-.23.45-.45.68-.68,1.13h-.23v.23h-.45l-.23.23c-.23,0-.45,0-.68.23Z"/>
    <path class="cls-34" d="m174.61,417.1v-.23l-.23-.23c0-.23-.23-.45,0-.68h.91v.45l.23.23c.45.23.68.23,1.13,0,.23-.23.23-.45,0-.91l-.23-.23h-.23l-.23-.23h-.68v-.23s-.23-.23-.45-.23v-.23l-.23-.23v-.23l-.23-.23v-.23l.23-.45.23-.23.23-.23.23-.23h.23c.45-.23.68-.23,1.13-.23v.23h.45l.23.23.23.45c0,.23,0,.45.23.45h-1.13c0-.23-.23-.45-.68-.45s-.45.23-.45.68l.23.23.23.23h.23c.23.23.45.23.68.45l.45.23h.23c0,.23.23.45.23.68v.91l-.23.23v.23c-.23,0-.45.23-.68.45-.68.23-1.59.23-2.27-.45Z"/>
    <path class="cls-15" d="m153.28,420.51c.23-.45.23-.91.23-1.36.23-.68,1.13-1.36,2.27-1.13.23,0,.45.23.23.23q0,.23-.23.23h-.91c-.23,0-.45.23-.45.45-.23.23-.45.45-.23.68.23-.23.68,0,1.13-.23.45,0,.68.23.45.45h-1.13c-.23.23-.45,0-.68.23v.68s0,.23.23.23h.45c.45,0,.68-.23.91-.45.45,0,.45-.23.68-.45.23,0,.45-.23.45-.23,0-.68.45-1.13.91-1.59.23-.23.23-.45.68-.45s.23.45.23.68c0,0,0,.23-.23.45v.23l-.23.23-.23.23c0,.23-.45.23-.45.45-.23,0-.23.23,0,.45h.45c.23-.23.45-.23.68-.23v-.23q.68,0,.45.45h-.23c-.23,0-.23.23-.45.23v.23h-.91c-.23,0-.45,0-.68-.23l-.23-.23c-.23.23-.45.23-.45.45h-.23c-.45.23-.91.45-1.36.45h-.91c-.23,0-.23-.23-.23-.45v-.45Z"/>
    <path class="cls-34" d="m173.25,416.65v.68c0,.23-.23.23-.45.23h-.45l-.23-.45v-3.18q0-.45-.68-.45v-.45c-.23-.45,0-.45.45-.45q.23,0,.23-.23v-.68q0-.68.91-.68l.23.23c-.23.23-.23.45,0,.45v.45q-.23.45.68.45v.91h-.45c-.23,0-.45,0-.23.23v.45c-.23.68-.23,1.59,0,2.5Z"/>
    <path class="cls-17" d="m156.23,416.65c-.23.23-.45.23-.68,0-.68-.23-1.36-.68-1.13-1.36.23,0,.45.23.68.45h.23l.23.23.23.23c.23.23.45.23.45.45Z"/>
    <path class="cls-15" d="m178.92,420.73h-.23q-.45,0-.45-.23c0-.23,0-.45.23-.45,0-.23,0-.45-.23-.45-.23-.23-.45,0-.45.23-.23,0-.45.23-.68.45h-.23v-.23c.45-.23.68-.68.91-1.13q.23-.23.45,0c.45,0,.91.45.91.68l-.23.45q.45,0,.68-.23h.23v.23c-.45.23-.68.45-.91.68Z"/>
    <path class="cls-29" d="m234.06,365.14c-.45.45-.68,1.36-1.13,2.27-.23.68-.45,1.13-.45,1.82,7.94,2.72,15.88,5.45,24.05,7.94.68-.91,1.59-2.04,2.5-3.18.68-.68,1.13-1.59,1.59-2.27-8.85-2.27-17.7-4.54-26.55-6.58Z"/>
    <path class="cls-12" d="m231.34,373.31c.23-.91.45-2.04.91-3.18,0-.45,0-.68.23-.91,3.18.68,6.35,1.59,9.76,2.5,4.99,1.36,10.21,2.72,15.2,4.31-.23.23-.45.45-.68.91-.68,1.13-1.59,2.27-2.5,3.18-1.82-.23-3.86-.45-5.9-.91-6.58-1.59-12.25-3.63-17.02-5.9Z"/>
    <path class="cls-29" d="m227.94,381.7c6.81,2.72,13.62,5.45,20.2,8.17l-1.82,4.08-19.74-9.76c.23-.45.45-.91.68-1.36.23-.45.45-.91.68-1.13Z"/>
    <path class="cls-12" d="m246.54,393.28c-3.4-1.36-7.26-2.95-11.35-4.99-2.95-1.36-5.9-2.95-8.4-4.54-.23.23-.23.45-.45.45-.45.68-.45,1.13-.91,1.82-.23.23-.23.45-.45.68,2.04,1.36,4.31,2.72,6.58,3.86,4.77,2.72,9.3,4.77,13.39,6.35.23-.68.45-1.13.91-1.82.23-.68.45-1.13.68-1.82Z"/>
    <path class="cls-29" d="m174.16,356.97c7.03,1.59,14.52,3.4,23.15,4.54,7.49.91,14.3,1.59,20.65,1.82,1.36.68,1.82,1.59,1.82,2.27.23,0,.23.23.45,1.59,0,.91.23,1.59.23,2.27-13.84-1.82-27.68-3.4-41.53-4.99-.68-1.36-1.59-2.72-2.5-4.08-.68-1.13-1.36-2.27-2.27-3.4Z"/>
    <path class="cls-12" d="m220.68,373.31c-21.33-.91-36.76-2.72-38.58-4.08-1.13-.91-1.82-2.04-1.82-2.04-.45-.45-.68-.91-.91-1.82-.23-.23-.23-.68-.45-.91,5.45.23,11.12.68,17.25,1.36,8.62.91,16.79,2.04,24.28,3.63v1.82c.23.68.23,1.13.23,1.82v.23Z"/>
    <path class="cls-12" d="m225.44,386.92c-4.08.91-8.4,1.82-13.39,2.27-5.45.68-10.44,1.13-15.2,1.13-.23-.45-.68-.91-1.13-1.36-1.13-1.36-2.04-2.72-2.72-4.08,10.44-.23,20.88-.23,31.09-.45l1.36,2.5Z"/>
    <path class="cls-29" d="m188.91,379.21c4.99-.68,8.85-.45,11.57-.23,3.86.45,4.31.91,9.76,1.36,0,0,1.36,0,9.3.45,1.36,0,2.27.23,2.95.23.68,1.13,1.13,2.5,1.59,3.86-1.82,0-4.77,0-8.4.23-6.13.23-8.17.45-12.03.45-2.5,0-6.13,0-10.67-.68-.68-.68-1.13-1.36-1.82-2.04-.91-1.36-1.82-2.5-2.27-3.63Z"/>
    <polygon class="cls-12" points="223.63 442.06 238.38 439.11 238.38 451.82 223.63 454.77 223.63 442.06"/>
    <path class="cls-12" d="m225.67,479.28l11.35-.68v9.08c-1.13.45-3.18,1.13-5.67,1.13-2.27.23-4.08-.23-5.22-.68-.23-2.95-.23-5.9-.45-8.85Z"/>
    <path class="cls-12" d="m226.8,510.14c3.4-.23,6.81-.23,10.21-.23,0,1.36.23,2.5.23,4.08v4.08c-1.13.23-2.72.91-4.99.91-2.04-.23-3.86-.68-4.77-.91-.23-2.72-.45-5.45-.68-7.94Z"/>
    <path class="cls-12" d="m230.89,541c2.95,0,5.9,0,8.85.23.45,2.04.68,3.63.68,4.99.23,1.13.45,2.72.45,2.95v2.04c-.68.45-2.5,1.13-4.54.91-2.04,0-3.63-.68-4.31-.91-.45-3.4-.91-6.81-1.13-10.21Z"/>
    <path class="cls-12" d="m233.16,570.5l4.99.45c-.45,1.36-.91,2.72-1.59,4.08-.23.45-.68,1.13-.91,1.59-.23.23-.68.45-1.13.45-.68-.23-1.13-.23-1.36-.45v-6.13Z"/>
    <path class="cls-29" d="m232.93,562.79c.45,0,2.5-.45,4.77.68,1.13.68,1.82,1.59,2.04,2.04-.23.91-.45,1.82-.68,2.72-.23.91-.68,1.82-.91,2.72-.68.23-1.36.45-2.5.45-.91,0-1.82,0-2.5-.23-.23-2.72-.23-5.45-.23-8.4Z"/>
    <path class="cls-29" d="m228.84,528.52c1.13.68,2.95,1.59,5.22,2.04,1.59.45,3.18.68,4.31.68.45,3.63.91,7.03,1.36,10.44-.23.45-2.04,1.59-4.54,1.36-2.5-.23-4.08-1.59-4.31-2.04-.68-4.08-1.36-8.4-2.04-12.48Z"/>
    <path class="cls-29" d="m226.35,498.34c1.59.45,3.63.68,6.13.45,1.82-.23,3.18-.45,4.31-.91.23,2.04.23,3.86.23,5.9v6.13c-.45.23-1.13.45-1.59.45-3.4.91-6.58.23-8.62-.23-.23-3.86-.23-7.94-.45-11.8Z"/>
    <path class="cls-29" d="m224.99,470.66c1.82-.23,3.86-.45,6.13-1.36,2.72-.68,4.77-1.82,6.58-2.72-.23,2.72-.23,5.45-.45,8.17,0,1.36,0,2.5-.23,3.86-1.13.45-3.4,1.36-6.35,1.36-2.04,0-3.86-.45-4.99-.68-.23-2.95-.45-5.67-.68-8.62Z"/>
    <path class="cls-29" d="m224.76,429.58c1.82,0,4.08-.23,6.81-.68,2.95-.91,5.67-1.82,7.49-2.72,0,2.95,0,6.35-.23,9.76-.23,1.13-.23,2.27-.45,3.18-.91.91-3.4,2.72-7.03,3.4-3.63.68-6.35,0-7.72-.45.45-4.08.68-8.4,1.13-12.48Z"/>
    <path class="cls-12" d="m210.69,436.16l13.39.45-.45,10.44c-.91.45-3.18,1.59-6.35,1.59-2.95,0-5.22-1.13-6.13-1.59-.23-1.59-.45-2.95-.45-4.54-.23-2.27,0-4.31,0-6.35Z"/>
    <path class="cls-12" d="m211.83,475.88c4.54.23,9.08.68,13.62.91.23,2.27.23,4.54.45,7.03-1.82.45-4.08.91-7.03.91-2.72,0-4.99-.23-6.58-.68-.23-2.72-.45-5.45-.45-8.17Z"/>
    <path class="cls-12" d="m213.41,504.01c.23,0,13.16,1.13,13.16,1.13l.45,7.72c-1.36.68-3.86,1.36-6.81,1.59-2.72,0-4.77-.68-5.9-1.13l-.68-4.77c0-1.59-.23-3.18-.23-4.54Z"/>
    <path class="cls-12" d="m216.14,533.51l13.62.68,1.59,8.85c-1.13.68-3.4,2.27-6.81,2.5-2.95.23-5.22-.68-6.35-1.13-.45-1.59-.91-3.18-1.36-4.99-.23-2.27-.45-4.31-.68-5.9Z"/>
    <path class="cls-12" d="m225.21,565.96l7.72,1.13.23,5.22c-.45.23-1.59.45-2.72.23s-1.82-.45-2.27-.68c-.45-.91-.91-1.59-1.36-2.5-.68-1.36-1.13-2.5-1.59-3.4Z"/>
    <path class="cls-29" d="m211.37,466.57c1.59.45,3.4.91,5.45,1.13,2.95.45,5.67.23,7.72.23.45,2.72.68,5.67,1.13,8.62-1.82.45-4.08.68-6.81.68-2.95-.23-5.45-.68-7.03-1.13-.23-1.36-.23-2.72-.45-4.08v-5.45Z"/>
    <path class="cls-29" d="m212.73,494.26c1.82.68,3.86,1.36,6.58,1.82,2.72.45,5.22.68,7.03.45,0,3.18.23,6.13.45,9.08-2.04.45-4.77.45-7.94,0-2.04-.23-3.86-.68-5.22-1.13-.23-1.36-.45-2.72-.45-4.08-.23-2.04-.45-4.08-.45-6.13Z"/>
    <path class="cls-29" d="m215,523.08c2.04.68,4.54,1.59,7.49,2.04,2.04.45,4.08.45,5.9.45.45,2.95.91,5.67,1.36,8.62-1.36.45-3.63.91-6.13.91-3.18,0-5.9-.91-7.49-1.59-.23-1.82-.68-3.63-.91-5.67,0-1.82-.23-3.4-.23-4.77Z"/>
    <path class="cls-29" d="m222.49,558.7c1.36.45,3.18.91,5.45,1.13,1.82.23,3.4.23,4.77,0,0,2.5.23,4.77.23,7.26-.68.23-1.82.23-3.18.23-2.04-.23-3.63-.91-4.54-1.36-.45-.91-1.13-2.27-1.59-3.63-.68-1.36-.91-2.5-1.13-3.63Z"/>
    <path class="cls-29" d="m209.78,425.05c2.27.68,4.99,1.36,8.17,1.59,2.72,0,4.99,0,7.03-.23-.45,3.86-.68,7.72-1.13,11.57-1.82.23-4.31.45-7.03.23-2.27-.23-4.31-.45-6.13-.91-.23-2.5-.45-4.99-.68-7.72-.23-1.59-.23-2.95-.23-4.54Z"/>
    <path class="cls-4" d="m224.31,386.92c.45,6.35.45,12.03.45,16.79v10.44c-.68,17.02-2.27,23.37-2.27,36.08v5.9c.23,4.77.45,6.81.91,9.3.23,2.5.68,5.9,1.36,13.84.68,9.76.68,15.43.68,20.2.23,4.99.23,9.3.91,16.79.68,7.03,1.13,10.89,1.82,14.98.91,3.86,1.59,7.94,2.27,15.2,1.59,13.39,1.82,24.51,1.82,32.22v2.04h2.04v-2.04c0-7.94-.45-19.06-1.82-32.22-.91-7.49-1.59-11.57-2.27-15.66-.68-3.86-1.36-7.72-2.04-14.75-.68-7.26-.68-11.57-.68-16.57-.23-4.77-.23-10.44-.91-20.42-.68-7.72-.91-11.35-1.36-13.84-.23-2.72-.68-4.31-.68-9.08-.23-2.04-.23-4.08-.23-5.9,0-12.48,1.59-19.06,2.27-36.08,0-2.95.23-6.35.23-10.44,0-4.99-.23-10.44-.45-16.79h-2.04Z"/>
    <path class="cls-13" d="m195.49,388.28c8.4-1.36,18.61-2.5,29.95-2.27,8.85,0,16.79.68,23.83,1.82-2.95,5.9-6.13,13.16-8.17,22.01-.45,2.5-.91,4.77-1.13,7.03-2.5,1.36-8.17,4.08-15.66,4.31-7.49,0-13.16-2.27-15.88-3.63-.68-3.86-2.04-8.62-4.08-13.62-2.72-6.58-5.9-11.8-8.85-15.66Z"/>
    <path class="cls-16" d="m217.04,408.48h14.75v-1.59h-14.75v1.59Zm12.48-2.95c.45-1.82,1.13-3.18,1.82-3.86.68-.91,1.59-1.13,2.27-1.13s1.13.23,1.59.68.91,1.36,1.13,2.72l1.59-.23c-.45-1.59-.91-2.72-1.59-3.4-.68-.91-1.82-1.36-2.72-1.36-1.13,0-2.27.68-3.4,1.82-.91.91-1.59,2.5-2.04,4.54l1.36.23Zm-9.3-.23c-.23-1.82-.91-3.18-2.04-4.31-.91-1.13-2.27-1.82-3.63-1.82-.91,0-1.82.45-2.5,1.13-.68.68-1.36,1.82-1.59,3.4l1.59.23c0-1.36.45-2.27.91-2.72.45-.45.91-.68,1.59-.68.91,0,1.82.45,2.72,1.36.68.91,1.36,2.04,1.59,3.63l1.36-.23Zm2.95-.23c-1.36-2.5-2.04-4.77-2.04-6.58,0-2.27.91-4.08,3.4-5.67l-.23-.68-.45.45c1.36,1.36,2.5,2.27,2.95,3.18.68.91.91,1.82.91,2.72,0,1.82-1.36,3.86-2.5,6.58l1.36.45c1.13-2.5,2.5-4.77,2.5-7.03,0-1.13-.23-2.27-1.13-3.4-.68-1.13-1.59-2.27-3.18-3.63l-.45-.23-.45.23c-2.95,1.82-4.31,4.31-4.31,7.03,0,2.27.91,4.54,2.27,7.26l1.36-.68Zm-1.36,4.31c-.68,1.13-1.13,2.04-1.13,3.18,0,.68.45,1.59.91,2.04.68.68,1.36,1.13,2.27,1.82l.45.23.23-.23c1.13-.68,1.82-1.13,2.5-1.82.45-.68.68-1.36.68-2.27s-.45-1.82-1.13-2.95l-1.13.68c.68,1.13.91,1.82.91,2.27s0,.91-.45,1.36c-.45.45-1.13.91-2.04,1.59l.45.45.23-.45c-.68-.68-1.36-1.13-1.82-1.59-.45-.45-.68-.68-.68-1.13,0-.68.23-1.36,1.13-2.5l-1.36-.68Zm-2.04.23c0,.68-.23,1.13-.68,1.59-.23.23-.68.45-1.13.45h-.68l-.23,1.36h.91c.91.23,1.82-.23,2.27-.91.45-.68.91-1.36,1.13-2.27l-1.59-.23Zm7.49.23c.23,1.13.45,1.82.91,2.5.68.68,1.36.91,2.27.68h1.13l-.23-1.36h-.91c-.68,0-.91,0-1.13-.23s-.45-.91-.68-1.82l-1.36.23Z"/>
    <path class="cls-23" d="m182.26,297.7c-1.92,2.76,4.44,11.28,10.2,16.56,15.6,14.28,36.36,14.04,42,14.04,6.24-.12,24.48-.36,39-13.08,7.56-6.6,14.4-16.92,12-19.92-2.28-3-11.4,3.72-30,7.92-6.6,1.56-23.16,5.04-42,2.04-18.6-3-28.92-10.68-31.2-7.56Z"/>
    <path class="cls-1" d="m197.62,211.18c.96,12.24,1.68,23.16-6,30-9.24,8.52-23.76,4.44-24.96,4.08-12.96-3.84-18.24-15.24-19.08-17.04-2.88-6.6-1.92-14.16,0-29.04,2.16-15.24,3.24-23.04,8.04-27,6.72-5.52,17.52-5.64,25.08-2.04,14.52,7.08,15.96,27.72,16.92,41.04Z"/>
    <path class="cls-1" d="m303.7,182.14c7.08,9.24,7.08,21.48,6.96,46.08,0,9.84-.6,14.4-3.96,18-6.36,6.84-17.52,5.04-19.08,4.8-11.28-1.8-17.76-10.44-20.76-14.4-7.56-10.32-8.52-21-9-25.68-.6-7.44-1.56-18.84,5.88-28.68,1.2-1.56,9.48-12.6,21.72-11.76,9.72.72,15.96,8.64,18.24,11.64Z"/>
    <path class="cls-23" d="m277.54,214.9c.48-1.56,1.32-4.2,3.6-6.24.84-.84,2.64-2.4,4.92-2.4,2.16.12,3.72,1.32,4.32,1.92,4.92,4.32,4.44,12.48,4.2,17.16-.12,2.28-.48,5.04-1.56,8.04-1.08,2.88-1.92,5.16-3.96,6.36-2.52,1.32-5.88.72-8.16-.6-8.28-5.04-3.6-23.28-3.36-24.24Z"/>
    <path class="cls-23" d="m167.62,214.66c.36-1.44,1.2-4.08,3.48-6.12.84-.72,2.52-2.28,4.8-2.16,2.04,0,3.48,1.2,4.2,1.8,4.68,4.2,4.32,12.12,4.08,16.68-.12,2.28-.48,4.92-1.56,7.8-1.08,2.88-1.8,5.04-3.84,6.12-2.4,1.32-5.76.84-7.92-.48-8.16-5.04-3.48-22.68-3.24-23.64Z"/>
    <path class="cls-37" d="m429.44,150.47c2.04-35.85-59.45-63.99-77.15-72.16-42.43-19.52-77.83-21.1-129.57-23.15-113.46-4.31-156.58,22.69-170.42,33.13-4.77,3.4-16.11,12.48-24.28,28.14-7.72,14.98-16.34,43.12-2.95,59.23,4.08,4.77,9.53,6.81,20.2,10.89,21.33,8.4,39.71,8.17,45.16,8.17,22.69-.68,33.36-7.49,51.06-12.03,27.68-7.49,29.5,1.59,84.19,1.82,61.27.45,77.15-10.67,107.56,0,3.63,1.36,14.07,5.45,29.05,7.03,13.39,1.59,27.68,3.4,41.07-3.86,13.16-7.26,25.19-22.01,26.1-37.22Z"/>
    <path class="cls-2" d="m87.24,118.02c4.99-6.58,10.21-13.16,15.2-19.74,2.95-24.73,5.9-49.47,8.85-74.2C132.4,14.99,179.6-2.25,241.78.24c41.3,1.59,73.52,11.35,93.04,18.83,3.86,27.91,7.49,56.05,11.35,83.96,4.99,5.45,9.98,11.12,14.98,16.57-18.83,10.44-49.24,24.51-90.32,30.86-23.37,3.86-77.15,9.3-135.25-10.21-21.56-7.26-37.67-15.88-48.33-22.24Z"/>
    <g>
      <path class="cls-37" d="m260.15,68.97c.27,4.61.54,11.94-3.8,19.26-8.68,14.38-28.22,14.38-29.84,14.38-2.71,0-15.74-.54-25.23-10.85-7.87-8.68-8.41-18.99-8.41-22.79,0-3.26-.54-18.72,10.85-27.67,7.87-6.24,17.09-5.97,22.79-5.97,4.88,0,12.21.27,19.26,4.88,13.02,8.41,14.11,25.23,14.38,28.76Z"/>
      <path class="cls-25" d="m214.03,76.57h25.77v-2.17h-25.77v2.17Zm21.7-4.88c.81-3.26,1.9-5.43,3.26-7.05,1.36-1.36,2.98-2.17,4.07-2.17,1.09.27,2.17.54,2.98,1.63,1.09.81,1.63,2.44,2.17,4.61l2.17-.27c-.54-2.71-1.36-4.61-2.71-5.97-1.09-1.36-2.71-2.17-4.61-2.17s-4.07,1.09-5.7,2.98c-1.63,1.63-2.98,4.34-3.8,7.87l2.17.54Zm-16.28-.54c-.27-2.98-1.63-5.43-3.53-7.33s-4.07-3.26-6.24-3.26c-1.63,0-3.26.81-4.61,2.17-1.09,1.09-1.9,2.98-2.44,5.7l2.17.27c.54-2.17,1.09-3.8,1.9-4.61.81-.81,1.9-1.09,2.98-1.09,1.36,0,3.26.81,4.61,2.17,1.63,1.63,2.71,3.8,2.98,6.51l2.17-.54Zm5.15-.27c-2.44-4.34-3.8-8.41-3.8-11.67,0-1.9.54-3.8,1.63-5.43s2.44-3.26,4.88-4.61l-.81-1.09-.54.81c2.71,2.17,4.34,4.07,5.43,5.7.81,1.63,1.36,2.98,1.36,4.61s-.54,3.26-1.36,5.15c-.81,1.9-1.9,4.07-2.71,6.51l2.17,1.09c.81-2.44,1.9-4.61,2.71-6.78.81-1.9,1.36-4.07,1.36-5.97s-.54-3.8-1.63-5.97c-1.36-1.9-3.26-3.8-5.97-5.97l-.54-.54-.81.54c-2.44,1.63-4.34,3.26-5.43,5.43-1.36,1.9-1.9,4.34-1.9,6.51,0,4.07,1.36,8.14,3.8,12.75l2.17-1.09Zm-1.9,7.6c-1.63,2.17-2.17,3.8-2.17,5.43,0,1.36.54,2.71,1.63,3.8.81,1.09,2.17,1.9,3.8,2.98l.54.54.81-.54c1.63-1.09,2.98-2.17,4.07-3.26.81-1.09,1.36-2.17,1.36-3.8s-.81-3.26-2.17-5.15l-1.9,1.36c1.36,1.63,1.9,2.98,1.9,3.8s-.27,1.63-1.09,2.44c-.54.81-1.9,1.63-3.53,2.71l.54,1.09.81-1.09c-1.63-.81-2.71-1.9-3.53-2.71-.81-.81-1.09-1.36-1.09-2.17s.54-2.17,1.9-4.07l-1.9-1.36Zm-3.53.27c-.27,1.36-.81,2.44-1.36,2.98-.54.54-1.36.81-2.44.81h-1.09l-.54,2.17c.54.27,1.09.27,1.63.27,1.63,0,3.26-.81,4.07-1.9,1.09-1.09,1.36-2.44,1.9-3.8l-2.17-.54Zm12.75.54c.54,1.9.81,3.26,1.9,4.34.27.54,1.09.81,1.63,1.09.54,0,1.36.27,2.17.27.54,0,1.09,0,1.9-.27l-.27-2.17h-2.98c-.54-.27-.81-.54-1.09-1.09-.54-.54-.81-1.36-.81-2.44l-2.44.27Z"/>
    </g>
    <path class="cls-37" d="m96.32,106.44c2.04-2.72,4.08-5.45,6.13-8.17.23-2.72.68-5.22.91-7.94,23.15,12.93,43.34,20.2,57.18,24.05,23.37,6.58,81.69,22.47,143.42-2.04,18.38-7.26,32-16.11,40.17-22.01.68,4.31,1.36,8.62,2.04,12.93,3.4,3.86,6.58,7.49,9.98,11.12-10.44,4.08-26.55,9.98-47.2,14.98-26.78,6.58-87.37,20.42-157.49,0-13.16-3.86-32.68-10.67-55.14-22.92Z"/>
  </g>
</svg>